HIERARCHY
ROOT Hips
{
	OFFSET 0.000000 0.000000 0.000000
	CHANNELS 6 Xposition Yposition Zposition Zrotation Yrotation Xrotation 
	JOINT LHipJoint
	{
		OFFSET 0.000000 0.000000 0.000000
		CHANNELS 3 Zrotation Yrotation Xrotation
		JOINT LeftUpLeg
		{
			OFFSET 1.363060 -1.794630 0.839290
			CHANNELS 3 Zrotation Yrotation Xrotation
			JOINT LeftLeg
			{
				OFFSET 2.448110 -6.726130 0.000000
				CHANNELS 3 Zrotation Yrotation Xrotation
				JOINT LeftFoot
				{
					OFFSET 2.562200 -7.039590 0.000000
					CHANNELS 3 Zrotation Yrotation Xrotation
					JOINT LeftToeBase
					{
						OFFSET 0.157640 -0.433110 2.322550
						CHANNELS 3 Zrotation Yrotation Xrotation
						End Site
						{
							OFFSET 0.000000 0.000000 0.000000
						}
					}
				}
			}
		}
	}
	JOINT RHipJoint
	{
		OFFSET 0.000000 0.000000 0.000000
		CHANNELS 3 Zrotation Yrotation Xrotation
		JOINT RightUpLeg
		{
			OFFSET -1.305520 -1.794630 0.839290
			CHANNELS 3 Zrotation Yrotation Xrotation
			JOINT RightLeg
			{
				OFFSET -2.542530 -6.985550 0.000000
				CHANNELS 3 Zrotation Yrotation Xrotation
				JOINT RightFoot
				{
					OFFSET -2.568260 -7.056230 0.000000
					CHANNELS 3 Zrotation Yrotation Xrotation
					JOINT RightToeBase
					{
						OFFSET -0.164730 -0.452590 2.363150
						CHANNELS 3 Zrotation Yrotation Xrotation
						End Site
						{
							OFFSET 0.000000 0.000000 0.000000
						}
					}
				}
			}
		}
	}
	JOINT LowerBack
	{
		OFFSET 0.000000 0.000000 0.000000
		CHANNELS 3 Zrotation Yrotation Xrotation
		JOINT Spine
		{
			OFFSET 0.028270 2.035590 -0.193380
			CHANNELS 3 Zrotation Yrotation Xrotation
			JOINT Spine1
			{
				OFFSET 0.056720 2.048850 -0.042750
				CHANNELS 3 Zrotation Yrotation Xrotation
				JOINT Neck
				{
					OFFSET 0.000000 0.000000 0.000000
					CHANNELS 3 Zrotation Yrotation Xrotation
					JOINT Neck1
					{
						OFFSET -0.054170 1.746240 0.172020
						CHANNELS 3 Zrotation Yrotation Xrotation
						JOINT Head
						{
							OFFSET 0.104070 1.761360 -0.123970
							CHANNELS 3 Zrotation Yrotation Xrotation
							End Site
							{
								OFFSET 0.000000 0.000000 0.000000
							}
						}
					}
				}
				JOINT LeftShoulder
				{
					OFFSET 0.000000 0.000000 0.000000
					CHANNELS 3 Zrotation Yrotation Xrotation
					JOINT LeftArm
					{
						OFFSET 3.362410 1.200890 -0.311210
						CHANNELS 3 Zrotation Yrotation Xrotation
						JOINT LeftForeArm
						{
							OFFSET 4.983000 -0.000000 -0.000000
							CHANNELS 3 Zrotation Yrotation Xrotation
							JOINT LeftHand
							{
								OFFSET 3.483560 -0.000000 -0.000000
								CHANNELS 3 Zrotation Yrotation Xrotation
								JOINT LeftFingerBase
								{
									OFFSET 0.000000 0.000000 0.000000
									CHANNELS 3 Zrotation Yrotation Xrotation
									JOINT LeftHandIndex1
									{
										OFFSET 0.715260 -0.000000 -0.000000
										CHANNELS 3 Zrotation Yrotation Xrotation
										End Site
										{
											OFFSET 0.000000 0.000000 0.000000
										}
									}
								}
								JOINT LThumb
								{
									OFFSET 0.000000 0.000000 0.000000
									CHANNELS 3 Zrotation Yrotation Xrotation
									End Site
									{
										OFFSET 0.000000 0.000000 0.000000
									}
								}
							}
						}
					}
				}
				JOINT RightShoulder
				{
					OFFSET 0.000000 0.000000 0.000000
					CHANNELS 3 Zrotation Yrotation Xrotation
					JOINT RightArm
					{
						OFFSET -3.136600 1.374050 -0.404650
						CHANNELS 3 Zrotation Yrotation Xrotation
						JOINT RightForeArm
						{
							OFFSET -5.241900 -0.000000 -0.000000
							CHANNELS 3 Zrotation Yrotation Xrotation
							JOINT RightHand
							{
								OFFSET -3.444170 -0.000000 -0.000000
								CHANNELS 3 Zrotation Yrotation Xrotation
								JOINT RightFingerBase
								{
									OFFSET 0.000000 0.000000 0.000000
									CHANNELS 3 Zrotation Yrotation Xrotation
									JOINT RightHandIndex1
									{
										OFFSET -0.622530 -0.000000 -0.000000
										CHANNELS 3 Zrotation Yrotation Xrotation
										End Site
										{
											OFFSET 0.000000 0.000000 0.000000
										}
									}
								}
								JOINT RThumb
								{
									OFFSET 0.000000 0.000000 0.000000
									CHANNELS 3 Zrotation Yrotation Xrotation
									End Site
									{
										OFFSET 0.000000 0.000000 0.000000
									}
								}
							}
						}
					}
				}
			}
		}
	}
}
MOTION
Frames: 7
Frame Time: 0.008333
12.453686 17.913049 11.168901 177.971117 4.952084 -172.676102 -4.920011 1.341811 2.295411 -4.734560 -12.399967 -20.311509 2.337205 9.374411 28.850014 -0.247390 2.127071 -2.068699 0.852200 -5.887500 -16.458400 1.631282 -1.890953 1.927611 19.338515 9.799023 -5.850295 -2.562605 -8.075813 26.032022 0.023348 -10.190387 -21.356838 -0.834900 -5.828800 16.288600 2.539519 2.502086 -3.038895 0.385569 3.116833 2.898454 -4.494374 1.485568 0.505963 -1.999219 3.542816 -4.910020 -6.169229 3.947641 3.481089 -1.981900 1.417900 3.478100 -3.585066 -2.387557 -0.049717 -87.140581 6.769138 3.214294 20.743126 -24.763862 -4.583608 -0.393071 -1.641797 -0.716322 19.209723 18.704803 7.084400 -7.125000 0.000000 0.000000 -8.969200 51.296400 -1.400600 1.480239 1.106225 -0.075310 88.481164 -7.041496 8.851510 -18.952157 26.944084 -4.540113 0.411164 -0.576268 4.356054 -19.667495 29.700812 -10.436700 7.125000 0.000000 0.000000 6.316600 1.626000 6.532700 
12.461750 17.902361 11.181434 177.996521 4.817737 -172.705359 -4.892934 1.342307 2.265802 -4.650240 -12.566028 -20.693645 2.446255 9.520443 29.364088 -0.257458 2.151799 -1.909085 0.734700 -5.475900 -15.271100 1.624249 -1.890819 1.938052 19.446913 9.681870 -6.022674 -2.604922 -8.140447 26.268919 0.062490 -10.383973 -21.283800 -0.794500 -5.689600 15.886500 2.494171 2.281432 -2.861436 0.443232 2.835422 2.874771 -4.452205 1.340104 0.386640 -2.354768 3.528838 -5.567199 -5.589987 4.056047 4.400961 -1.740200 1.446300 3.887200 -3.581077 -2.357474 -0.048304 -87.182529 6.663814 2.996397 20.850962 -24.911089 -4.642419 -0.373235 -1.615151 -0.090181 18.861272 18.281628 6.792000 -7.125000 0.000000 0.000000 -9.200000 50.777000 -1.319200 1.486571 1.139726 -0.062507 88.483874 -6.955226 8.979526 -18.850248 26.811604 -4.491497 0.411292 -0.576435 4.362771 -19.619290 29.646669 -10.393800 7.125000 0.000000 0.000000 6.337500 1.562100 6.547700 
12.473894 17.899641 11.188138 178.044227 5.122083 -172.653848 -4.853565 1.327360 2.238488 -4.614925 -12.374873 -21.233319 2.602473 9.749126 30.119682 -0.287372 2.293190 -1.755504 0.782800 -5.648600 -15.768200 1.608351 -1.892122 1.937135 19.515773 10.015557 -6.065240 -2.629031 -8.164448 26.381553 0.041359 -10.258938 -21.289461 -0.875100 -5.963900 16.679800 2.446353 2.304116 -2.823547 0.406086 2.868180 2.790236 -4.440906 1.352486 0.315197 -2.491645 3.474163 -5.721112 -5.041061 4.037759 4.863074 -1.541600 1.444700 4.053100 -3.568588 -2.332063 -0.048401 -87.083771 6.655816 3.332325 20.947845 -25.036083 -4.693999 -0.402941 -1.624188 -0.078699 19.468785 18.657016 7.162000 -7.125000 0.000000 0.000000 -8.702600 51.278900 -1.354700 1.492371 1.162797 -0.054172 88.662769 -7.069269 8.668493 -18.748008 26.682825 -4.440923 0.402209 -0.596935 4.372044 -19.226241 30.430256 -10.413700 7.125000 0.000000 0.000000 6.669100 2.301700 6.978300 
12.487787 17.902167 11.195327 177.931136 5.506937 -172.653718 -4.822358 1.310110 2.215603 -4.744576 -12.116710 -21.733540 2.760216 9.967889 30.859742 -0.329370 2.485195 -1.420172 0.842400 -5.854300 -16.362200 1.592686 -1.893834 1.935350 19.398581 10.369725 -6.038758 -2.641699 -8.181447 26.443722 0.020635 -10.136367 -21.294346 -0.897900 -6.039100 16.897900 2.197549 2.405935 -2.730995 0.327608 3.011774 2.708419 -4.333295 1.423787 0.204352 -2.397621 2.899068 -5.206976 -5.017974 3.212310 4.243950 -1.570600 1.075500 3.708100 -3.552562 -2.319790 -0.057423 -86.982644 6.786614 4.183084 21.099708 -25.225551 -4.777786 -0.465574 -1.666657 -0.594527 20.831750 19.655163 8.094700 -7.125000 0.000000 0.000000 -7.615200 52.600700 -1.431200 1.496429 1.155454 -0.059849 88.882462 -7.242876 8.111183 -18.668295 26.583204 -4.400509 0.400470 -0.604422 4.580456 -19.303235 30.604885 -10.510900 7.125000 0.000000 0.000000 6.647600 2.499100 6.977500 
12.496726 17.907511 11.199116 177.811096 5.766025 -172.632898 -4.783293 1.292574 2.194106 -4.868929 -11.874804 -22.341560 2.943077 10.206577 31.697053 -0.330353 2.460012 -1.055830 0.872300 -5.954900 -16.653600 1.578716 -1.898854 1.944990 19.273519 10.522371 -6.084594 -2.649097 -8.188562 26.475274 0.033839 -10.143888 -21.184692 -0.868300 -5.941500 16.614600 1.963346 2.368095 -2.688052 0.350440 2.966918 2.754548 -4.184174 1.408623 0.201506 -1.993090 2.309767 -4.519209 -5.664748 2.289890 2.727529 -1.849800 0.666000 3.055800 -3.547196 -2.342254 -0.066458 -87.075430 6.822480 4.614251 21.370244 -25.562920 -4.933558 -0.387235 -1.712329 -1.016977 19.774713 20.027934 7.776500 -7.125000 0.000000 0.000000 -8.891500 52.828500 -1.723700 1.494321 1.129763 -0.075524 88.912560 -7.047958 7.876657 -18.537495 26.404888 -4.333295 0.416013 -0.591768 4.807774 -20.181117 29.894552 -10.789900 7.125000 0.000000 0.000000 6.041000 1.934700 6.276100 
12.501681 17.909940 11.198242 177.816229 5.781576 -172.664284 -4.732386 1.289066 2.181844 -4.864136 -11.706327 -22.925048 3.141060 10.463532 32.594829 -0.302568 2.285311 -0.675237 0.889900 -6.012900 -16.821700 1.572332 -1.896843 1.958644 19.347386 10.671415 -5.982111 -2.656080 -8.190431 26.508612 0.018667 -10.162950 -21.347517 -0.938000 -6.169000 17.275500 1.852684 2.130158 -2.678824 0.521293 2.664228 2.965362 -4.050417 1.254755 0.301111 -2.727259 2.504769 -6.308279 -4.875070 2.819834 4.624668 -1.487800 0.859500 4.016300 -3.551485 -2.308650 -0.067971 -87.321161 6.620554 4.520040 21.600305 -25.845137 -5.067549 -0.302857 -1.703318 -1.179911 18.589720 19.294986 7.024400 -7.125000 0.000000 0.000000 -9.883700 51.848700 -1.680400 1.500197 1.189228 -0.053575 88.747362 -6.519446 8.070371 -18.301898 26.083591 -4.214117 0.433990 -0.590614 4.793664 -21.022361 29.718947 -11.210800 7.125000 0.000000 0.000000 5.522800 1.920900 5.731200 
12.504207 17.900515 11.198728 177.900939 5.596872 -172.911595 -4.686008 1.308226 2.177677 -4.771878 -11.908529 -23.191446 3.355290 10.729495 33.540897 -0.323770 2.375026 -0.349190 0.923100 -6.120900 -17.135700 1.574804 -1.894116 1.977412 19.570840 10.781143 -5.599662 -2.658163 -8.192326 26.530393 -0.010132 -10.207009 -21.667523 -1.064100 -6.558100 18.412700 1.818940 1.818033 -2.432466 0.768538 2.275613 3.238705 -3.933553 1.062858 0.314927 -3.317252 2.519724 -7.333179 -4.341805 3.009227 5.416056 -1.219100 0.923400 4.470900 -3.565697 -2.295842 -0.081065 -87.622639 6.375304 4.431111 21.768234 -26.058202 -5.140374 -0.461060 -1.720210 -1.175000 21.499937 20.104617 8.561900 -7.125000 0.000000 0.000000 -7.095800 53.248900 -1.445500 1.498547 1.231052 -0.041382 88.522364 -6.104037 8.361000 -18.097784 25.806585 -4.112557 0.437716 -0.605584 4.765933 -21.210828 30.253429 -11.499000 7.125000 0.000000 0.000000 5.487300 2.519800 5.749200 
